<svg width="98" height="45" viewBox="0 0 98 45" fill="none" xmlns="http://www.w3.org/2000/svg">
<g clip-path="url(#clip0_23_461)">
<path d="M97.6924 26.802V44.9584H90.7411V26.802C90.7411 20.6179 85.7617 15.6026 79.6193 15.6026C73.4768 15.6026 68.4974 20.6168 68.4974 26.802V44.9584H61.5461V8.604H68.4974V12.4594C71.5642 10.0429 75.423 8.604 79.6193 8.604C89.6005 8.604 97.6913 16.7513 97.6913 26.802H97.6924Z" fill="#F6F5F7"/>
<path d="M39.8096 8.604C29.8284 8.604 21.7375 16.7513 21.7375 26.802C21.7375 36.8528 29.8284 45 39.8096 45C49.7907 45 57.8816 36.8528 57.8816 26.802C57.8816 16.7513 49.7907 8.604 39.8096 8.604ZM39.8096 38.0002C33.6683 38.0002 28.6877 32.9861 28.6877 26.8009C28.6877 20.6156 33.6671 15.6015 39.8096 15.6015C45.952 15.6015 50.9314 20.6156 50.9314 26.8009C50.9314 32.9861 45.952 38.0002 39.8096 38.0002Z" fill="#F6F5F7"/>
<path d="M18.072 26.802C18.072 36.8527 9.98117 45 0 45V38.0002C6.14131 38.0002 11.1218 32.9861 11.1218 26.8009C11.1218 26.5792 11.1163 26.361 11.1029 26.1427V6.99975H4.17167V0H18.0541V25.9425C18.0676 26.2283 18.0731 26.514 18.0731 26.802H18.072Z" fill="#F6F5F7"/>
</g>
<defs>
<clipPath id="clip0_23_461">
<rect width="97.3125" height="45" fill="white"/>
</clipPath>
</defs>
</svg>
